<svg xmlns="http://www.w3.org/2000/svg" viewBox="0 0 640 380" role="img" aria-labelledby="t d"><title id="t">Rung Bars：按固定收入单位数档｜单位：档 / 10 万</title><desc id="d">阶梯数量与收入单位一一对应。</desc><rect width="640" height="380" fill="#fcfbf5"/><text x="24" y="28" font-family="Arial,PingFang SC,Microsoft YaHei,sans-serif" font-size="16" fill="#20251f" text-anchor="start" font-weight="700">Rung Bars：按固定收入单位数档</text><text x="616" y="27" font-family="Arial,PingFang SC,Microsoft YaHei,sans-serif" font-size="11" fill="#6c756d" text-anchor="end" font-weight="400">单位：档 / 10 万</text><text x="24" y="60" font-family="Arial,PingFang SC,Microsoft YaHei,sans-serif" font-size="11" fill="#6c756d" text-anchor="start" font-weight="400">1 rung = 10 万收入单位；每档可数</text><text x="28" y="97" font-family="Arial,PingFang SC,Microsoft YaHei,sans-serif" font-size="12" fill="#20251f" text-anchor="start" font-weight="400">方案 A</text><rect x="165.00" y="83.00" width="38.00" height="18.00" fill="none" stroke="#20251f" stroke-width="1" rx="2"/><rect x="213.00" y="83.00" width="38.00" height="18.00" fill="none" stroke="#20251f" stroke-width="1" rx="2"/><rect x="261.00" y="83.00" width="38.00" height="18.00" fill="none" stroke="#20251f" stroke-width="1" rx="2"/><rect x="309.00" y="83.00" width="38.00" height="18.00" fill="none" stroke="#20251f" stroke-width="1" rx="2"/><rect x="357.00" y="83.00" width="38.00" height="18.00" fill="none" stroke="#20251f" stroke-width="1" rx="2"/><rect x="405.00" y="83.00" width="38.00" height="18.00" fill="none" stroke="#20251f" stroke-width="1" rx="2"/><text x="461" y="97" font-family="Arial,PingFang SC,Microsoft YaHei,sans-serif" font-size="10" fill="#20251f" text-anchor="start" font-weight="400">6 档</text><text x="28" y="149" font-family="Arial,PingFang SC,Microsoft YaHei,sans-serif" font-size="12" fill="#20251f" text-anchor="start" font-weight="400">方案 B</text><rect x="165.00" y="135.00" width="38.00" height="18.00" fill="none" stroke="#20251f" stroke-width="1" rx="2"/><rect x="213.00" y="135.00" width="38.00" height="18.00" fill="none" stroke="#20251f" stroke-width="1" rx="2"/><rect x="261.00" y="135.00" width="38.00" height="18.00" fill="none" stroke="#20251f" stroke-width="1" rx="2"/><rect x="309.00" y="135.00" width="38.00" height="18.00" fill="none" stroke="#20251f" stroke-width="1" rx="2"/><rect x="357.00" y="135.00" width="38.00" height="18.00" fill="none" stroke="#20251f" stroke-width="1" rx="2"/><text x="413" y="149" font-family="Arial,PingFang SC,Microsoft YaHei,sans-serif" font-size="10" fill="#20251f" text-anchor="start" font-weight="400">5 档</text><text x="28" y="201" font-family="Arial,PingFang SC,Microsoft YaHei,sans-serif" font-size="12" fill="#20251f" text-anchor="start" font-weight="400">方案 C</text><rect x="165.00" y="187.00" width="38.00" height="18.00" fill="none" stroke="#20251f" stroke-width="1" rx="2"/><rect x="213.00" y="187.00" width="38.00" height="18.00" fill="none" stroke="#20251f" stroke-width="1" rx="2"/><rect x="261.00" y="187.00" width="38.00" height="18.00" fill="none" stroke="#20251f" stroke-width="1" rx="2"/><rect x="309.00" y="187.00" width="38.00" height="18.00" fill="none" stroke="#20251f" stroke-width="1" rx="2"/><text x="365" y="201" font-family="Arial,PingFang SC,Microsoft YaHei,sans-serif" font-size="10" fill="#20251f" text-anchor="start" font-weight="400">4 档</text><text x="28" y="253" font-family="Arial,PingFang SC,Microsoft YaHei,sans-serif" font-size="12" fill="#20251f" text-anchor="start" font-weight="400">方案 D</text><rect x="165.00" y="239.00" width="38.00" height="18.00" fill="none" stroke="#20251f" stroke-width="1" rx="2"/><rect x="213.00" y="239.00" width="38.00" height="18.00" fill="none" stroke="#20251f" stroke-width="1" rx="2"/><rect x="261.00" y="239.00" width="38.00" height="18.00" fill="none" stroke="#20251f" stroke-width="1" rx="2"/><text x="317" y="253" font-family="Arial,PingFang SC,Microsoft YaHei,sans-serif" font-size="10" fill="#20251f" text-anchor="start" font-weight="400">3 档</text></svg>